<?xml version="1.0" encoding="utf-8" standalone="no"?>
<!DOCTYPE svg PUBLIC "-//W3C//DTD SVG 1.1//EN"
  "http://www.w3.org/Graphics/SVG/1.1/DTD/svg11.dtd">
<!-- Created with matplotlib (https://matplotlib.org/) -->
<svg height="345.6pt" version="1.1" viewBox="0 0 460.8 345.6" width="460.8pt" xmlns="http://www.w3.org/2000/svg" xmlns:xlink="http://www.w3.org/1999/xlink">
 <defs>
  <style type="text/css">
*{stroke-linecap:butt;stroke-linejoin:round;}
  </style>
 </defs>
 <g id="figure_1">
  <g id="patch_1">
   <path d="M 0 345.6 
L 460.8 345.6 
L 460.8 0 
L 0 0 
z
" style="fill:#ffffff;"/>
  </g>
  <g id="axes_1">
   <g id="patch_2">
    <path d="M 57.6 307.584 
L 414.72 307.584 
L 414.72 41.472 
L 57.6 41.472 
z
" style="fill:#ffffff;"/>
   </g>
   <g id="matplotlib.axis_1">
    <g id="xtick_1">
     <g id="line2d_1">
      <path clip-path="url(#p40f55f799d)" d="M 57.6 307.584 
L 57.6 41.472 
" style="fill:none;stroke:#b0b0b0;stroke-linecap:square;stroke-width:0.8;"/>
     </g>
     <g id="line2d_2">
      <defs>
       <path d="M 0 0 
L 0 3.5 
" id="m74564bb1df" style="stroke:#000000;stroke-width:0.8;"/>
      </defs>
      <g>
       <use style="stroke:#000000;stroke-width:0.8;" x="57.6" xlink:href="#m74564bb1df" y="307.584"/>
      </g>
     </g>
     <g id="text_1">
      <!-- 0 -->
      <defs>
       <path d="M 31.78125 66.40625 
Q 24.171875 66.40625 20.328125 58.90625 
Q 16.5 51.421875 16.5 36.375 
Q 16.5 21.390625 20.328125 13.890625 
Q 24.171875 6.390625 31.78125 6.390625 
Q 39.453125 6.390625 43.28125 13.890625 
Q 47.125 21.390625 47.125 36.375 
Q 47.125 51.421875 43.28125 58.90625 
Q 39.453125 66.40625 31.78125 66.40625 
z
M 31.78125 74.21875 
Q 44.046875 74.21875 50.515625 64.515625 
Q 56.984375 54.828125 56.984375 36.375 
Q 56.984375 17.96875 50.515625 8.265625 
Q 44.046875 -1.421875 31.78125 -1.421875 
Q 19.53125 -1.421875 13.0625 8.265625 
Q 6.59375 17.96875 6.59375 36.375 
Q 6.59375 54.828125 13.0625 64.515625 
Q 19.53125 74.21875 31.78125 74.21875 
z
" id="DejaVuSans-48"/>
      </defs>
      <g transform="translate(54.41875 322.182437)scale(0.1 -0.1)">
       <use xlink:href="#DejaVuSans-48"/>
      </g>
     </g>
    </g>
    <g id="xtick_2">
     <g id="line2d_3">
      <path clip-path="url(#p40f55f799d)" d="M 117.12 307.584 
L 117.12 41.472 
" style="fill:none;stroke:#b0b0b0;stroke-linecap:square;stroke-width:0.8;"/>
     </g>
     <g id="line2d_4">
      <g>
       <use style="stroke:#000000;stroke-width:0.8;" x="117.12" xlink:href="#m74564bb1df" y="307.584"/>
      </g>
     </g>
     <g id="text_2">
      <!-- 5 -->
      <defs>
       <path d="M 10.796875 72.90625 
L 49.515625 72.90625 
L 49.515625 64.59375 
L 19.828125 64.59375 
L 19.828125 46.734375 
Q 21.96875 47.46875 24.109375 47.828125 
Q 26.265625 48.1875 28.421875 48.1875 
Q 40.625 48.1875 47.75 41.5 
Q 54.890625 34.8125 54.890625 23.390625 
Q 54.890625 11.625 47.5625 5.09375 
Q 40.234375 -1.421875 26.90625 -1.421875 
Q 22.3125 -1.421875 17.546875 -0.640625 
Q 12.796875 0.140625 7.71875 1.703125 
L 7.71875 11.625 
Q 12.109375 9.234375 16.796875 8.0625 
Q 21.484375 6.890625 26.703125 6.890625 
Q 35.15625 6.890625 40.078125 11.328125 
Q 45.015625 15.765625 45.015625 23.390625 
Q 45.015625 31 40.078125 35.4375 
Q 35.15625 39.890625 26.703125 39.890625 
Q 22.75 39.890625 18.8125 39.015625 
Q 14.890625 38.140625 10.796875 36.28125 
z
" id="DejaVuSans-53"/>
      </defs>
      <g transform="translate(113.93875 322.182437)scale(0.1 -0.1)">
       <use xlink:href="#DejaVuSans-53"/>
      </g>
     </g>
    </g>
    <g id="xtick_3">
     <g id="line2d_5">
      <path clip-path="url(#p40f55f799d)" d="M 176.64 307.584 
L 176.64 41.472 
" style="fill:none;stroke:#b0b0b0;stroke-linecap:square;stroke-width:0.8;"/>
     </g>
     <g id="line2d_6">
      <g>
       <use style="stroke:#000000;stroke-width:0.8;" x="176.64" xlink:href="#m74564bb1df" y="307.584"/>
      </g>
     </g>
     <g id="text_3">
      <!-- 10 -->
      <defs>
       <path d="M 12.40625 8.296875 
L 28.515625 8.296875 
L 28.515625 63.921875 
L 10.984375 60.40625 
L 10.984375 69.390625 
L 28.421875 72.90625 
L 38.28125 72.90625 
L 38.28125 8.296875 
L 54.390625 8.296875 
L 54.390625 0 
L 12.40625 0 
z
" id="DejaVuSans-49"/>
      </defs>
      <g transform="translate(170.2775 322.182437)scale(0.1 -0.1)">
       <use xlink:href="#DejaVuSans-49"/>
       <use x="63.623047" xlink:href="#DejaVuSans-48"/>
      </g>
     </g>
    </g>
    <g id="xtick_4">
     <g id="line2d_7">
      <path clip-path="url(#p40f55f799d)" d="M 236.16 307.584 
L 236.16 41.472 
" style="fill:none;stroke:#b0b0b0;stroke-linecap:square;stroke-width:0.8;"/>
     </g>
     <g id="line2d_8">
      <g>
       <use style="stroke:#000000;stroke-width:0.8;" x="236.16" xlink:href="#m74564bb1df" y="307.584"/>
      </g>
     </g>
     <g id="text_4">
      <!-- 15 -->
      <g transform="translate(229.7975 322.182437)scale(0.1 -0.1)">
       <use xlink:href="#DejaVuSans-49"/>
       <use x="63.623047" xlink:href="#DejaVuSans-53"/>
      </g>
     </g>
    </g>
    <g id="xtick_5">
     <g id="line2d_9">
      <path clip-path="url(#p40f55f799d)" d="M 295.68 307.584 
L 295.68 41.472 
" style="fill:none;stroke:#b0b0b0;stroke-linecap:square;stroke-width:0.8;"/>
     </g>
     <g id="line2d_10">
      <g>
       <use style="stroke:#000000;stroke-width:0.8;" x="295.68" xlink:href="#m74564bb1df" y="307.584"/>
      </g>
     </g>
     <g id="text_5">
      <!-- 20 -->
      <defs>
       <path d="M 19.1875 8.296875 
L 53.609375 8.296875 
L 53.609375 0 
L 7.328125 0 
L 7.328125 8.296875 
Q 12.9375 14.109375 22.625 23.890625 
Q 32.328125 33.6875 34.8125 36.53125 
Q 39.546875 41.84375 41.421875 45.53125 
Q 43.3125 49.21875 43.3125 52.78125 
Q 43.3125 58.59375 39.234375 62.25 
Q 35.15625 65.921875 28.609375 65.921875 
Q 23.96875 65.921875 18.8125 64.3125 
Q 13.671875 62.703125 7.8125 59.421875 
L 7.8125 69.390625 
Q 13.765625 71.78125 18.9375 73 
Q 24.125 74.21875 28.421875 74.21875 
Q 39.75 74.21875 46.484375 68.546875 
Q 53.21875 62.890625 53.21875 53.421875 
Q 53.21875 48.921875 51.53125 44.890625 
Q 49.859375 40.875 45.40625 35.40625 
Q 44.1875 33.984375 37.640625 27.21875 
Q 31.109375 20.453125 19.1875 8.296875 
z
" id="DejaVuSans-50"/>
      </defs>
      <g transform="translate(289.3175 322.182437)scale(0.1 -0.1)">
       <use xlink:href="#DejaVuSans-50"/>
       <use x="63.623047" xlink:href="#DejaVuSans-48"/>
      </g>
     </g>
    </g>
    <g id="xtick_6">
     <g id="line2d_11">
      <path clip-path="url(#p40f55f799d)" d="M 355.2 307.584 
L 355.2 41.472 
" style="fill:none;stroke:#b0b0b0;stroke-linecap:square;stroke-width:0.8;"/>
     </g>
     <g id="line2d_12">
      <g>
       <use style="stroke:#000000;stroke-width:0.8;" x="355.2" xlink:href="#m74564bb1df" y="307.584"/>
      </g>
     </g>
     <g id="text_6">
      <!-- 25 -->
      <g transform="translate(348.8375 322.182437)scale(0.1 -0.1)">
       <use xlink:href="#DejaVuSans-50"/>
       <use x="63.623047" xlink:href="#DejaVuSans-53"/>
      </g>
     </g>
    </g>
    <g id="xtick_7">
     <g id="line2d_13">
      <path clip-path="url(#p40f55f799d)" d="M 414.72 307.584 
L 414.72 41.472 
" style="fill:none;stroke:#b0b0b0;stroke-linecap:square;stroke-width:0.8;"/>
     </g>
     <g id="line2d_14">
      <g>
       <use style="stroke:#000000;stroke-width:0.8;" x="414.72" xlink:href="#m74564bb1df" y="307.584"/>
      </g>
     </g>
     <g id="text_7">
      <!-- 30 -->
      <defs>
       <path d="M 40.578125 39.3125 
Q 47.65625 37.796875 51.625 33 
Q 55.609375 28.21875 55.609375 21.1875 
Q 55.609375 10.40625 48.1875 4.484375 
Q 40.765625 -1.421875 27.09375 -1.421875 
Q 22.515625 -1.421875 17.65625 -0.515625 
Q 12.796875 0.390625 7.625 2.203125 
L 7.625 11.71875 
Q 11.71875 9.328125 16.59375 8.109375 
Q 21.484375 6.890625 26.8125 6.890625 
Q 36.078125 6.890625 40.9375 10.546875 
Q 45.796875 14.203125 45.796875 21.1875 
Q 45.796875 27.640625 41.28125 31.265625 
Q 36.765625 34.90625 28.71875 34.90625 
L 20.21875 34.90625 
L 20.21875 43.015625 
L 29.109375 43.015625 
Q 36.375 43.015625 40.234375 45.921875 
Q 44.09375 48.828125 44.09375 54.296875 
Q 44.09375 59.90625 40.109375 62.90625 
Q 36.140625 65.921875 28.71875 65.921875 
Q 24.65625 65.921875 20.015625 65.03125 
Q 15.375 64.15625 9.8125 62.3125 
L 9.8125 71.09375 
Q 15.4375 72.65625 20.34375 73.4375 
Q 25.25 74.21875 29.59375 74.21875 
Q 40.828125 74.21875 47.359375 69.109375 
Q 53.90625 64.015625 53.90625 55.328125 
Q 53.90625 49.265625 50.4375 45.09375 
Q 46.96875 40.921875 40.578125 39.3125 
z
" id="DejaVuSans-51"/>
      </defs>
      <g transform="translate(408.3575 322.182437)scale(0.1 -0.1)">
       <use xlink:href="#DejaVuSans-51"/>
       <use x="63.623047" xlink:href="#DejaVuSans-48"/>
      </g>
     </g>
    </g>
    <g id="text_8">
     <!-- SNR -->
     <defs>
      <path d="M 53.515625 70.515625 
L 53.515625 60.890625 
Q 47.90625 63.578125 42.921875 64.890625 
Q 37.9375 66.21875 33.296875 66.21875 
Q 25.25 66.21875 20.875 63.09375 
Q 16.5 59.96875 16.5 54.203125 
Q 16.5 49.359375 19.40625 46.890625 
Q 22.3125 44.4375 30.421875 42.921875 
L 36.375 41.703125 
Q 47.40625 39.59375 52.65625 34.296875 
Q 57.90625 29 57.90625 20.125 
Q 57.90625 9.515625 50.796875 4.046875 
Q 43.703125 -1.421875 29.984375 -1.421875 
Q 24.8125 -1.421875 18.96875 -0.25 
Q 13.140625 0.921875 6.890625 3.21875 
L 6.890625 13.375 
Q 12.890625 10.015625 18.65625 8.296875 
Q 24.421875 6.59375 29.984375 6.59375 
Q 38.421875 6.59375 43.015625 9.90625 
Q 47.609375 13.234375 47.609375 19.390625 
Q 47.609375 24.75 44.3125 27.78125 
Q 41.015625 30.8125 33.5 32.328125 
L 27.484375 33.5 
Q 16.453125 35.6875 11.515625 40.375 
Q 6.59375 45.0625 6.59375 53.421875 
Q 6.59375 63.09375 13.40625 68.65625 
Q 20.21875 74.21875 32.171875 74.21875 
Q 37.3125 74.21875 42.625 73.28125 
Q 47.953125 72.359375 53.515625 70.515625 
z
" id="DejaVuSans-83"/>
      <path d="M 9.8125 72.90625 
L 23.09375 72.90625 
L 55.421875 11.921875 
L 55.421875 72.90625 
L 64.984375 72.90625 
L 64.984375 0 
L 51.703125 0 
L 19.390625 60.984375 
L 19.390625 0 
L 9.8125 0 
z
" id="DejaVuSans-78"/>
      <path d="M 44.390625 34.1875 
Q 47.5625 33.109375 50.5625 29.59375 
Q 53.5625 26.078125 56.59375 19.921875 
L 66.609375 0 
L 56 0 
L 46.6875 18.703125 
Q 43.0625 26.03125 39.671875 28.421875 
Q 36.28125 30.8125 30.421875 30.8125 
L 19.671875 30.8125 
L 19.671875 0 
L 9.8125 0 
L 9.8125 72.90625 
L 32.078125 72.90625 
Q 44.578125 72.90625 50.734375 67.671875 
Q 56.890625 62.453125 56.890625 51.90625 
Q 56.890625 45.015625 53.6875 40.46875 
Q 50.484375 35.9375 44.390625 34.1875 
z
M 19.671875 64.796875 
L 19.671875 38.921875 
L 32.078125 38.921875 
Q 39.203125 38.921875 42.84375 42.21875 
Q 46.484375 45.515625 46.484375 51.90625 
Q 46.484375 58.296875 42.84375 61.546875 
Q 39.203125 64.796875 32.078125 64.796875 
z
" id="DejaVuSans-82"/>
     </defs>
     <g transform="translate(225.770938 335.860562)scale(0.1 -0.1)">
      <use xlink:href="#DejaVuSans-83"/>
      <use x="63.476562" xlink:href="#DejaVuSans-78"/>
      <use x="138.28125" xlink:href="#DejaVuSans-82"/>
     </g>
    </g>
   </g>
   <g id="matplotlib.axis_2">
    <g id="ytick_1">
     <g id="line2d_15">
      <path clip-path="url(#p40f55f799d)" d="M 57.6 307.584 
L 414.72 307.584 
" style="fill:none;stroke:#b0b0b0;stroke-linecap:square;stroke-width:0.8;"/>
     </g>
     <g id="line2d_16">
      <defs>
       <path d="M 0 0 
L -3.5 0 
" id="m2cba307fc3" style="stroke:#000000;stroke-width:0.8;"/>
      </defs>
      <g>
       <use style="stroke:#000000;stroke-width:0.8;" x="57.6" xlink:href="#m2cba307fc3" y="307.584"/>
      </g>
     </g>
     <g id="text_9">
      <!-- $\mathdefault{10^{-5}}$ -->
      <defs>
       <path d="M 10.59375 35.5 
L 73.1875 35.5 
L 73.1875 27.203125 
L 10.59375 27.203125 
z
" id="DejaVuSans-8722"/>
      </defs>
      <g transform="translate(27.1 311.383219)scale(0.1 -0.1)">
       <use transform="translate(0 0.684375)" xlink:href="#DejaVuSans-49"/>
       <use transform="translate(63.623047 0.684375)" xlink:href="#DejaVuSans-48"/>
       <use transform="translate(128.203125 38.965625)scale(0.7)" xlink:href="#DejaVuSans-8722"/>
       <use transform="translate(186.855469 38.965625)scale(0.7)" xlink:href="#DejaVuSans-53"/>
      </g>
     </g>
    </g>
    <g id="ytick_2">
     <g id="line2d_17">
      <path clip-path="url(#p40f55f799d)" d="M 57.6 254.3616 
L 414.72 254.3616 
" style="fill:none;stroke:#b0b0b0;stroke-linecap:square;stroke-width:0.8;"/>
     </g>
     <g id="line2d_18">
      <g>
       <use style="stroke:#000000;stroke-width:0.8;" x="57.6" xlink:href="#m2cba307fc3" y="254.3616"/>
      </g>
     </g>
     <g id="text_10">
      <!-- $\mathdefault{10^{-4}}$ -->
      <defs>
       <path d="M 37.796875 64.3125 
L 12.890625 25.390625 
L 37.796875 25.390625 
z
M 35.203125 72.90625 
L 47.609375 72.90625 
L 47.609375 25.390625 
L 58.015625 25.390625 
L 58.015625 17.1875 
L 47.609375 17.1875 
L 47.609375 0 
L 37.796875 0 
L 37.796875 17.1875 
L 4.890625 17.1875 
L 4.890625 26.703125 
z
" id="DejaVuSans-52"/>
      </defs>
      <g transform="translate(27.1 258.160819)scale(0.1 -0.1)">
       <use transform="translate(0 0.684375)" xlink:href="#DejaVuSans-49"/>
       <use transform="translate(63.623047 0.684375)" xlink:href="#DejaVuSans-48"/>
       <use transform="translate(128.203125 38.965625)scale(0.7)" xlink:href="#DejaVuSans-8722"/>
       <use transform="translate(186.855469 38.965625)scale(0.7)" xlink:href="#DejaVuSans-52"/>
      </g>
     </g>
    </g>
    <g id="ytick_3">
     <g id="line2d_19">
      <path clip-path="url(#p40f55f799d)" d="M 57.6 201.1392 
L 414.72 201.1392 
" style="fill:none;stroke:#b0b0b0;stroke-linecap:square;stroke-width:0.8;"/>
     </g>
     <g id="line2d_20">
      <g>
       <use style="stroke:#000000;stroke-width:0.8;" x="57.6" xlink:href="#m2cba307fc3" y="201.1392"/>
      </g>
     </g>
     <g id="text_11">
      <!-- $\mathdefault{10^{-3}}$ -->
      <g transform="translate(27.1 204.938419)scale(0.1 -0.1)">
       <use transform="translate(0 0.765625)" xlink:href="#DejaVuSans-49"/>
       <use transform="translate(63.623047 0.765625)" xlink:href="#DejaVuSans-48"/>
       <use transform="translate(128.203125 39.046875)scale(0.7)" xlink:href="#DejaVuSans-8722"/>
       <use transform="translate(186.855469 39.046875)scale(0.7)" xlink:href="#DejaVuSans-51"/>
      </g>
     </g>
    </g>
    <g id="ytick_4">
     <g id="line2d_21">
      <path clip-path="url(#p40f55f799d)" d="M 57.6 147.9168 
L 414.72 147.9168 
" style="fill:none;stroke:#b0b0b0;stroke-linecap:square;stroke-width:0.8;"/>
     </g>
     <g id="line2d_22">
      <g>
       <use style="stroke:#000000;stroke-width:0.8;" x="57.6" xlink:href="#m2cba307fc3" y="147.9168"/>
      </g>
     </g>
     <g id="text_12">
      <!-- $\mathdefault{10^{-2}}$ -->
      <g transform="translate(27.1 151.716019)scale(0.1 -0.1)">
       <use transform="translate(0 0.765625)" xlink:href="#DejaVuSans-49"/>
       <use transform="translate(63.623047 0.765625)" xlink:href="#DejaVuSans-48"/>
       <use transform="translate(128.203125 39.046875)scale(0.7)" xlink:href="#DejaVuSans-8722"/>
       <use transform="translate(186.855469 39.046875)scale(0.7)" xlink:href="#DejaVuSans-50"/>
      </g>
     </g>
    </g>
    <g id="ytick_5">
     <g id="line2d_23">
      <path clip-path="url(#p40f55f799d)" d="M 57.6 94.6944 
L 414.72 94.6944 
" style="fill:none;stroke:#b0b0b0;stroke-linecap:square;stroke-width:0.8;"/>
     </g>
     <g id="line2d_24">
      <g>
       <use style="stroke:#000000;stroke-width:0.8;" x="57.6" xlink:href="#m2cba307fc3" y="94.6944"/>
      </g>
     </g>
     <g id="text_13">
      <!-- $\mathdefault{10^{-1}}$ -->
      <g transform="translate(27.1 98.493619)scale(0.1 -0.1)">
       <use transform="translate(0 0.684375)" xlink:href="#DejaVuSans-49"/>
       <use transform="translate(63.623047 0.684375)" xlink:href="#DejaVuSans-48"/>
       <use transform="translate(128.203125 38.965625)scale(0.7)" xlink:href="#DejaVuSans-8722"/>
       <use transform="translate(186.855469 38.965625)scale(0.7)" xlink:href="#DejaVuSans-49"/>
      </g>
     </g>
    </g>
    <g id="ytick_6">
     <g id="line2d_25">
      <path clip-path="url(#p40f55f799d)" d="M 57.6 41.472 
L 414.72 41.472 
" style="fill:none;stroke:#b0b0b0;stroke-linecap:square;stroke-width:0.8;"/>
     </g>
     <g id="line2d_26">
      <g>
       <use style="stroke:#000000;stroke-width:0.8;" x="57.6" xlink:href="#m2cba307fc3" y="41.472"/>
      </g>
     </g>
     <g id="text_14">
      <!-- $\mathdefault{10^{0}}$ -->
      <g transform="translate(33 45.271219)scale(0.1 -0.1)">
       <use transform="translate(0 0.765625)" xlink:href="#DejaVuSans-49"/>
       <use transform="translate(63.623047 0.765625)" xlink:href="#DejaVuSans-48"/>
       <use transform="translate(128.203125 39.046875)scale(0.7)" xlink:href="#DejaVuSans-48"/>
      </g>
     </g>
    </g>
    <g id="ytick_7">
     <g id="line2d_27">
      <defs>
       <path d="M 0 0 
L -2 0 
" id="m76abe8d39e" style="stroke:#000000;stroke-width:0.6;"/>
      </defs>
      <g>
       <use style="stroke:#000000;stroke-width:0.6;" x="57.6" xlink:href="#m76abe8d39e" y="291.562461"/>
      </g>
     </g>
    </g>
    <g id="ytick_8">
     <g id="line2d_28">
      <g>
       <use style="stroke:#000000;stroke-width:0.6;" x="57.6" xlink:href="#m76abe8d39e" y="282.190462"/>
      </g>
     </g>
    </g>
    <g id="ytick_9">
     <g id="line2d_29">
      <g>
       <use style="stroke:#000000;stroke-width:0.6;" x="57.6" xlink:href="#m76abe8d39e" y="275.540922"/>
      </g>
     </g>
    </g>
    <g id="ytick_10">
     <g id="line2d_30">
      <g>
       <use style="stroke:#000000;stroke-width:0.6;" x="57.6" xlink:href="#m76abe8d39e" y="270.383139"/>
      </g>
     </g>
    </g>
    <g id="ytick_11">
     <g id="line2d_31">
      <g>
       <use style="stroke:#000000;stroke-width:0.6;" x="57.6" xlink:href="#m76abe8d39e" y="266.168923"/>
      </g>
     </g>
    </g>
    <g id="ytick_12">
     <g id="line2d_32">
      <g>
       <use style="stroke:#000000;stroke-width:0.6;" x="57.6" xlink:href="#m76abe8d39e" y="262.605854"/>
      </g>
     </g>
    </g>
    <g id="ytick_13">
     <g id="line2d_33">
      <g>
       <use style="stroke:#000000;stroke-width:0.6;" x="57.6" xlink:href="#m76abe8d39e" y="259.519383"/>
      </g>
     </g>
    </g>
    <g id="ytick_14">
     <g id="line2d_34">
      <g>
       <use style="stroke:#000000;stroke-width:0.6;" x="57.6" xlink:href="#m76abe8d39e" y="256.796923"/>
      </g>
     </g>
    </g>
    <g id="ytick_15">
     <g id="line2d_35">
      <g>
       <use style="stroke:#000000;stroke-width:0.6;" x="57.6" xlink:href="#m76abe8d39e" y="238.340061"/>
      </g>
     </g>
    </g>
    <g id="ytick_16">
     <g id="line2d_36">
      <g>
       <use style="stroke:#000000;stroke-width:0.6;" x="57.6" xlink:href="#m76abe8d39e" y="228.968062"/>
      </g>
     </g>
    </g>
    <g id="ytick_17">
     <g id="line2d_37">
      <g>
       <use style="stroke:#000000;stroke-width:0.6;" x="57.6" xlink:href="#m76abe8d39e" y="222.318522"/>
      </g>
     </g>
    </g>
    <g id="ytick_18">
     <g id="line2d_38">
      <g>
       <use style="stroke:#000000;stroke-width:0.6;" x="57.6" xlink:href="#m76abe8d39e" y="217.160739"/>
      </g>
     </g>
    </g>
    <g id="ytick_19">
     <g id="line2d_39">
      <g>
       <use style="stroke:#000000;stroke-width:0.6;" x="57.6" xlink:href="#m76abe8d39e" y="212.946523"/>
      </g>
     </g>
    </g>
    <g id="ytick_20">
     <g id="line2d_40">
      <g>
       <use style="stroke:#000000;stroke-width:0.6;" x="57.6" xlink:href="#m76abe8d39e" y="209.383454"/>
      </g>
     </g>
    </g>
    <g id="ytick_21">
     <g id="line2d_41">
      <g>
       <use style="stroke:#000000;stroke-width:0.6;" x="57.6" xlink:href="#m76abe8d39e" y="206.296983"/>
      </g>
     </g>
    </g>
    <g id="ytick_22">
     <g id="line2d_42">
      <g>
       <use style="stroke:#000000;stroke-width:0.6;" x="57.6" xlink:href="#m76abe8d39e" y="203.574523"/>
      </g>
     </g>
    </g>
    <g id="ytick_23">
     <g id="line2d_43">
      <g>
       <use style="stroke:#000000;stroke-width:0.6;" x="57.6" xlink:href="#m76abe8d39e" y="185.117661"/>
      </g>
     </g>
    </g>
    <g id="ytick_24">
     <g id="line2d_44">
      <g>
       <use style="stroke:#000000;stroke-width:0.6;" x="57.6" xlink:href="#m76abe8d39e" y="175.745662"/>
      </g>
     </g>
    </g>
    <g id="ytick_25">
     <g id="line2d_45">
      <g>
       <use style="stroke:#000000;stroke-width:0.6;" x="57.6" xlink:href="#m76abe8d39e" y="169.096122"/>
      </g>
     </g>
    </g>
    <g id="ytick_26">
     <g id="line2d_46">
      <g>
       <use style="stroke:#000000;stroke-width:0.6;" x="57.6" xlink:href="#m76abe8d39e" y="163.938339"/>
      </g>
     </g>
    </g>
    <g id="ytick_27">
     <g id="line2d_47">
      <g>
       <use style="stroke:#000000;stroke-width:0.6;" x="57.6" xlink:href="#m76abe8d39e" y="159.724123"/>
      </g>
     </g>
    </g>
    <g id="ytick_28">
     <g id="line2d_48">
      <g>
       <use style="stroke:#000000;stroke-width:0.6;" x="57.6" xlink:href="#m76abe8d39e" y="156.161054"/>
      </g>
     </g>
    </g>
    <g id="ytick_29">
     <g id="line2d_49">
      <g>
       <use style="stroke:#000000;stroke-width:0.6;" x="57.6" xlink:href="#m76abe8d39e" y="153.074583"/>
      </g>
     </g>
    </g>
    <g id="ytick_30">
     <g id="line2d_50">
      <g>
       <use style="stroke:#000000;stroke-width:0.6;" x="57.6" xlink:href="#m76abe8d39e" y="150.352123"/>
      </g>
     </g>
    </g>
    <g id="ytick_31">
     <g id="line2d_51">
      <g>
       <use style="stroke:#000000;stroke-width:0.6;" x="57.6" xlink:href="#m76abe8d39e" y="131.895261"/>
      </g>
     </g>
    </g>
    <g id="ytick_32">
     <g id="line2d_52">
      <g>
       <use style="stroke:#000000;stroke-width:0.6;" x="57.6" xlink:href="#m76abe8d39e" y="122.523262"/>
      </g>
     </g>
    </g>
    <g id="ytick_33">
     <g id="line2d_53">
      <g>
       <use style="stroke:#000000;stroke-width:0.6;" x="57.6" xlink:href="#m76abe8d39e" y="115.873722"/>
      </g>
     </g>
    </g>
    <g id="ytick_34">
     <g id="line2d_54">
      <g>
       <use style="stroke:#000000;stroke-width:0.6;" x="57.6" xlink:href="#m76abe8d39e" y="110.715939"/>
      </g>
     </g>
    </g>
    <g id="ytick_35">
     <g id="line2d_55">
      <g>
       <use style="stroke:#000000;stroke-width:0.6;" x="57.6" xlink:href="#m76abe8d39e" y="106.501723"/>
      </g>
     </g>
    </g>
    <g id="ytick_36">
     <g id="line2d_56">
      <g>
       <use style="stroke:#000000;stroke-width:0.6;" x="57.6" xlink:href="#m76abe8d39e" y="102.938654"/>
      </g>
     </g>
    </g>
    <g id="ytick_37">
     <g id="line2d_57">
      <g>
       <use style="stroke:#000000;stroke-width:0.6;" x="57.6" xlink:href="#m76abe8d39e" y="99.852183"/>
      </g>
     </g>
    </g>
    <g id="ytick_38">
     <g id="line2d_58">
      <g>
       <use style="stroke:#000000;stroke-width:0.6;" x="57.6" xlink:href="#m76abe8d39e" y="97.129723"/>
      </g>
     </g>
    </g>
    <g id="ytick_39">
     <g id="line2d_59">
      <g>
       <use style="stroke:#000000;stroke-width:0.6;" x="57.6" xlink:href="#m76abe8d39e" y="78.672861"/>
      </g>
     </g>
    </g>
    <g id="ytick_40">
     <g id="line2d_60">
      <g>
       <use style="stroke:#000000;stroke-width:0.6;" x="57.6" xlink:href="#m76abe8d39e" y="69.300862"/>
      </g>
     </g>
    </g>
    <g id="ytick_41">
     <g id="line2d_61">
      <g>
       <use style="stroke:#000000;stroke-width:0.6;" x="57.6" xlink:href="#m76abe8d39e" y="62.651322"/>
      </g>
     </g>
    </g>
    <g id="ytick_42">
     <g id="line2d_62">
      <g>
       <use style="stroke:#000000;stroke-width:0.6;" x="57.6" xlink:href="#m76abe8d39e" y="57.493539"/>
      </g>
     </g>
    </g>
    <g id="ytick_43">
     <g id="line2d_63">
      <g>
       <use style="stroke:#000000;stroke-width:0.6;" x="57.6" xlink:href="#m76abe8d39e" y="53.279323"/>
      </g>
     </g>
    </g>
    <g id="ytick_44">
     <g id="line2d_64">
      <g>
       <use style="stroke:#000000;stroke-width:0.6;" x="57.6" xlink:href="#m76abe8d39e" y="49.716254"/>
      </g>
     </g>
    </g>
    <g id="ytick_45">
     <g id="line2d_65">
      <g>
       <use style="stroke:#000000;stroke-width:0.6;" x="57.6" xlink:href="#m76abe8d39e" y="46.629783"/>
      </g>
     </g>
    </g>
    <g id="ytick_46">
     <g id="line2d_66">
      <g>
       <use style="stroke:#000000;stroke-width:0.6;" x="57.6" xlink:href="#m76abe8d39e" y="43.907323"/>
      </g>
     </g>
    </g>
    <g id="text_15">
     <!-- BER -->
     <defs>
      <path d="M 19.671875 34.8125 
L 19.671875 8.109375 
L 35.5 8.109375 
Q 43.453125 8.109375 47.28125 11.40625 
Q 51.125 14.703125 51.125 21.484375 
Q 51.125 28.328125 47.28125 31.5625 
Q 43.453125 34.8125 35.5 34.8125 
z
M 19.671875 64.796875 
L 19.671875 42.828125 
L 34.28125 42.828125 
Q 41.5 42.828125 45.03125 45.53125 
Q 48.578125 48.25 48.578125 53.8125 
Q 48.578125 59.328125 45.03125 62.0625 
Q 41.5 64.796875 34.28125 64.796875 
z
M 9.8125 72.90625 
L 35.015625 72.90625 
Q 46.296875 72.90625 52.390625 68.21875 
Q 58.5 63.53125 58.5 54.890625 
Q 58.5 48.1875 55.375 44.234375 
Q 52.25 40.28125 46.1875 39.3125 
Q 53.46875 37.75 57.5 32.78125 
Q 61.53125 27.828125 61.53125 20.40625 
Q 61.53125 10.640625 54.890625 5.3125 
Q 48.25 0 35.984375 0 
L 9.8125 0 
z
" id="DejaVuSans-66"/>
      <path d="M 9.8125 72.90625 
L 55.90625 72.90625 
L 55.90625 64.59375 
L 19.671875 64.59375 
L 19.671875 43.015625 
L 54.390625 43.015625 
L 54.390625 34.71875 
L 19.671875 34.71875 
L 19.671875 8.296875 
L 56.78125 8.296875 
L 56.78125 0 
L 9.8125 0 
z
" id="DejaVuSans-69"/>
     </defs>
     <g transform="translate(21.020313 184.592062)rotate(-90)scale(0.1 -0.1)">
      <use xlink:href="#DejaVuSans-66"/>
      <use x="68.603516" xlink:href="#DejaVuSans-69"/>
      <use x="131.787109" xlink:href="#DejaVuSans-82"/>
     </g>
    </g>
   </g>
   <g id="line2d_67">
    <path clip-path="url(#p40f55f799d)" d="M 60.576 78.972594 
L 63.552 79.326201 
L 66.528 80.066252 
L 69.504 80.69821 
L 72.48 81.36174 
L 75.456 81.724011 
L 78.432 82.349799 
L 81.408 83.054893 
L 84.384 83.863425 
L 87.36 84.241684 
L 90.336 85.076964 
L 93.312 86.053204 
L 96.288 86.572957 
L 99.264 87.360448 
L 102.24 87.91087 
L 105.216 88.615597 
L 108.192 89.265694 
L 111.168 90.06265 
L 114.144 91.050301 
L 117.12 91.953815 
L 120.096 92.750075 
L 123.072 93.426469 
L 126.048 94.402327 
L 129.024 94.717063 
L 132 95.569119 
L 134.976 96.89973 
L 137.952 97.492006 
L 140.928 98.007873 
L 143.904 99.523885 
L 146.88 99.948815 
L 149.856 101.162131 
L 152.832 101.813975 
L 155.808 102.587888 
L 158.784 103.738891 
L 161.76 104.856757 
L 164.736 106.067618 
L 167.712 106.290522 
L 170.688 107.528305 
L 173.664 109.133278 
L 176.64 110.253459 
L 179.616 110.082752 
L 182.592 111.066628 
L 185.568 112.047316 
L 188.544 113.348832 
L 191.52 114.641854 
L 194.496 115.151326 
L 197.472 116.695719 
L 200.448 116.874921 
L 203.424 118.150121 
L 206.4 119.639651 
L 209.376 119.718081 
L 212.352 120.954707 
L 215.328 122.768315 
L 218.304 124.427019 
L 221.28 124.221085 
L 224.256 125.349245 
L 227.232 126.312411 
L 230.208 126.931292 
L 233.184 128.895559 
L 236.16 129.533485 
L 239.136 131.642965 
L 242.112 132.084559 
L 245.088 133.180531 
L 248.064 133.598164 
L 251.04 134.559972 
L 254.016 135.344317 
L 256.992 137.524621 
L 259.968 138.065184 
L 262.944 138.158192 
L 265.92 140.042721 
L 268.896 140.810389 
L 271.872 143.676114 
L 274.848 143.420442 
L 277.824 146.257802 
L 280.8 145.924872 
L 283.776 149.397464 
L 286.752 147.867446 
L 289.728 150.732446 
L 292.704 150.319402 
L 295.68 151.677713 
L 298.656 154.256385 
L 301.632 154.859429 
L 304.608 155.383846 
L 307.584 157.681886 
L 310.56 160.269353 
L 313.536 156.338391 
L 316.512 160.17832 
L 319.488 162.002674 
L 322.464 164.878295 
L 325.44 162.336152 
L 328.416 162.437736 
L 331.392 164.542513 
L 334.368 166.009291 
L 337.344 165.025006 
L 340.32 163.593062 
L 343.296 172.552894 
L 346.272 172.575554 
L 349.248 173.816552 
L 352.224 174.428825 
L 355.2 174.771604 
L 358.176 176.860409 
L 361.152 173.367327 
L 364.128 182.244169 
L 367.104 178.415453 
L 370.08 178.420858 
L 373.056 179.852646 
L 376.032 188.285173 
L 379.008 178.484741 
L 381.984 184.002302 
L 384.96 184.947819 
L 387.936 192.664666 
L 390.912 184.006432 
L 393.888 185.586105 
L 396.864 189.738192 
L 399.84 192.548815 
L 402.816 191.935389 
L 405.792 198.504226 
L 408.768 199.521383 
L 411.744 193.997972 
L 414.72 200.472809 
" style="fill:none;stroke:#1f77b4;stroke-linecap:square;stroke-width:1.5;"/>
   </g>
   <g id="line2d_68">
    <path clip-path="url(#p40f55f799d)" d="M 60.576 78.899351 
L 63.552 79.4624 
L 66.528 80.038371 
L 69.504 80.627278 
L 72.48 81.229116 
L 75.456 81.843861 
L 78.432 82.471476 
L 81.408 83.111905 
L 84.384 83.765079 
L 87.36 84.430914 
L 90.336 85.109315 
L 93.312 85.80017 
L 96.288 86.50336 
L 99.264 87.21875 
L 102.24 87.946194 
L 105.216 88.685538 
L 108.192 89.436614 
L 111.168 90.199245 
L 114.144 90.973245 
L 117.12 91.758418 
L 120.096 92.554558 
L 123.072 93.361452 
L 126.048 94.178877 
L 129.024 95.006605 
L 132 95.844397 
L 134.976 96.69201 
L 137.952 97.549195 
L 140.928 98.415697 
L 143.904 99.291256 
L 146.88 100.175608 
L 149.856 101.068488 
L 152.832 101.969628 
L 155.808 102.878758 
L 158.784 103.79561 
L 161.76 104.719917 
L 164.736 105.651414 
L 167.712 106.58984 
L 170.688 107.534941 
L 173.664 108.486469 
L 176.64 109.444184 
L 179.616 110.407856 
L 182.592 111.377267 
L 185.568 112.352212 
L 188.544 113.3325 
L 191.52 114.317957 
L 194.496 115.308424 
L 197.472 116.303764 
L 200.448 117.303858 
L 203.424 118.308608 
L 206.4 119.317938 
L 209.376 120.331795 
L 212.352 121.350148 
L 215.328 122.37299 
L 218.304 123.400337 
L 221.28 124.432227 
L 224.256 125.468719 
L 227.232 126.509894 
L 230.208 127.555851 
L 233.184 128.606705 
L 236.16 129.662587 
L 239.136 130.723638 
L 242.112 131.790006 
L 245.088 132.861846 
L 248.064 133.939307 
L 251.04 135.022537 
L 254.016 136.111671 
L 256.992 137.206824 
L 259.968 138.30809 
L 262.944 139.415532 
L 265.92 140.529172 
L 268.896 141.648988 
L 271.872 142.774903 
L 274.848 143.906778 
L 277.824 145.044403 
L 280.8 146.18749 
L 283.776 147.335666 
L 286.752 148.488463 
L 289.728 149.645317 
L 292.704 150.805556 
L 295.68 151.968407 
L 298.656 153.132987 
L 301.632 154.298308 
L 304.608 155.463284 
L 307.584 156.626739 
L 310.56 157.787418 
L 313.536 158.944015 
L 316.512 160.095187 
L 319.488 161.239591 
L 322.464 162.375922 
L 325.44 163.502951 
L 328.416 164.619581 
L 331.392 165.724896 
L 334.368 166.818222 
L 337.344 167.899188 
L 340.32 168.967794 
L 343.296 170.024464 
L 346.272 171.070112 
L 349.248 172.106194 
L 352.224 173.134748 
L 355.2 174.158434 
L 358.176 175.180548 
L 361.152 176.205028 
L 364.128 177.236439 
L 367.104 178.27993 
L 370.08 179.341168 
L 373.056 180.426237 
L 376.032 181.541488 
L 379.008 182.693329 
L 381.984 183.887932 
L 384.96 185.130819 
L 387.936 186.426279 
L 390.912 187.776547 
L 393.888 189.180652 
L 396.864 190.632806 
L 399.84 192.120201 
L 402.816 193.620094 
L 405.792 195.096137 
L 408.768 196.494216 
L 411.744 197.738569 
L 414.72 198.729914 
" style="fill:none;stroke:#1f77b4;stroke-dasharray:1.5,2.475;stroke-dashoffset:0;stroke-width:1.5;"/>
   </g>
   <g id="line2d_69">
    <path clip-path="url(#p40f55f799d)" d="M 60.576 68.57973 
L 63.552 68.967325 
L 66.528 69.337266 
L 69.504 69.890883 
L 72.48 70.212739 
L 75.456 70.485887 
L 78.432 70.887694 
L 81.408 71.488515 
L 84.384 71.881458 
L 87.36 72.166647 
L 90.336 72.683086 
L 93.312 73.132747 
L 96.288 73.72133 
L 99.264 74.072546 
L 102.24 74.562132 
L 105.216 75.180688 
L 108.192 76.113778 
L 111.168 76.561655 
L 114.144 76.783278 
L 117.12 77.631639 
L 120.096 78.175488 
L 123.072 79.042464 
L 126.048 79.335193 
L 129.024 79.827889 
L 132 80.615098 
L 134.976 80.768143 
L 137.952 82.105571 
L 140.928 82.522868 
L 143.904 82.331345 
L 146.88 84.29907 
L 149.856 84.691969 
L 152.832 85.012637 
L 155.808 85.861242 
L 158.784 86.586075 
L 161.76 87.900854 
L 164.736 88.827932 
L 167.712 89.24528 
L 170.688 89.67093 
L 173.664 90.123832 
L 176.64 91.869617 
L 179.616 92.699768 
L 182.592 93.100517 
L 185.568 93.601876 
L 188.544 95.901637 
L 191.52 95.875837 
L 194.496 96.599255 
L 197.472 97.092418 
L 200.448 97.939482 
L 203.424 99.828576 
L 206.4 100.317863 
L 209.376 102.171106 
L 212.352 102.819839 
L 215.328 103.550625 
L 218.304 104.413026 
L 221.28 105.220258 
L 224.256 106.540858 
L 227.232 107.145772 
L 230.208 107.467974 
L 233.184 108.663125 
L 236.16 110.983175 
L 239.136 111.76956 
L 242.112 112.558223 
L 245.088 112.958296 
L 248.064 114.755266 
L 251.04 116.204809 
L 254.016 116.713389 
L 256.992 118.888814 
L 259.968 118.071822 
L 262.944 120.282976 
L 265.92 122.782725 
L 268.896 122.060064 
L 271.872 123.833388 
L 274.848 125.609952 
L 277.824 125.87497 
L 280.8 127.851053 
L 283.776 127.3375 
L 286.752 130.767929 
L 289.728 128.72339 
L 292.704 132.706482 
L 295.68 132.191569 
L 298.656 133.026337 
L 301.632 136.149441 
L 304.608 138.535749 
L 307.584 138.412083 
L 310.56 138.584514 
L 313.536 140.762636 
L 316.512 140.13415 
L 319.488 141.251375 
L 322.464 142.366196 
L 325.44 146.848844 
L 328.416 144.847925 
L 331.392 147.012467 
L 334.368 147.462194 
L 337.344 152.204172 
L 340.32 149.903216 
L 343.296 151.911437 
L 346.272 150.309786 
L 349.248 156.442609 
L 352.224 155.373072 
L 355.2 154.574816 
L 358.176 158.697033 
L 361.152 159.24894 
L 364.128 162.617682 
L 367.104 160.819675 
L 370.08 166.390362 
L 373.056 169.687251 
L 376.032 168.392566 
L 379.008 164.848223 
L 381.984 170.520944 
L 384.96 165.100232 
L 387.936 175.360758 
L 390.912 170.999879 
L 393.888 169.527004 
L 396.864 175.247375 
L 399.84 175.805451 
L 402.816 176.635119 
L 405.792 180.942001 
L 408.768 180.80374 
L 411.744 177.598754 
L 414.72 182.582153 
" style="fill:none;stroke:#ff7f0e;stroke-linecap:square;stroke-width:1.5;"/>
   </g>
   <g id="line2d_70">
    <path clip-path="url(#p40f55f799d)" d="M 60.576 68.630087 
L 63.552 68.986024 
L 66.528 69.354831 
L 69.504 69.736327 
L 72.48 70.130355 
L 75.456 70.536778 
L 78.432 70.955476 
L 81.408 71.386351 
L 84.384 71.829318 
L 87.36 72.284308 
L 90.336 72.751267 
L 93.312 73.230151 
L 96.288 73.72093 
L 99.264 74.223584 
L 102.24 74.738102 
L 105.216 75.264481 
L 108.192 75.802729 
L 111.168 76.352857 
L 114.144 76.914887 
L 117.12 77.488842 
L 120.096 78.074754 
L 123.072 78.672656 
L 126.048 79.282587 
L 129.024 79.904587 
L 132 80.538699 
L 134.976 81.184969 
L 137.952 81.843443 
L 140.928 82.514165 
L 143.904 83.197183 
L 146.88 83.892542 
L 149.856 84.600284 
L 152.832 85.320451 
L 155.808 86.053082 
L 158.784 86.798211 
L 161.76 87.55587 
L 164.736 88.326083 
L 167.712 89.108871 
L 170.688 89.904247 
L 173.664 90.712217 
L 176.64 91.532781 
L 179.616 92.365927 
L 182.592 93.211635 
L 185.568 94.069875 
L 188.544 94.940605 
L 191.52 95.823771 
L 194.496 96.719306 
L 197.472 97.627129 
L 200.448 98.547144 
L 203.424 99.479239 
L 206.4 100.423286 
L 209.376 101.379141 
L 212.352 102.34664 
L 215.328 103.3256 
L 218.304 104.315822 
L 221.28 105.317083 
L 224.256 106.329142 
L 227.232 107.351738 
L 230.208 108.384588 
L 233.184 109.427388 
L 236.16 110.479817 
L 239.136 111.54153 
L 242.112 112.612168 
L 245.088 113.69135 
L 248.064 114.778681 
L 251.04 115.873752 
L 254.016 116.976141 
L 256.992 118.085418 
L 259.968 119.201145 
L 262.944 120.322881 
L 265.92 121.450189 
L 268.896 122.582635 
L 271.872 123.719796 
L 274.848 124.861264 
L 277.824 126.006654 
L 280.8 127.155607 
L 283.776 128.307796 
L 286.752 129.462934 
L 289.728 130.620779 
L 292.704 131.781141 
L 295.68 132.943883 
L 298.656 134.108935 
L 301.632 135.276287 
L 304.608 136.446004 
L 307.584 137.618218 
L 310.56 138.793139 
L 313.536 139.971045 
L 316.512 141.152287 
L 319.488 142.337281 
L 322.464 143.526503 
L 325.44 144.720479 
L 328.416 145.919774 
L 331.392 147.124976 
L 334.368 148.33668 
L 337.344 149.555465 
L 340.32 150.781871 
L 343.296 152.016367 
L 346.272 153.259321 
L 349.248 154.510963 
L 352.224 155.771345 
L 355.2 157.0403 
L 358.176 158.317391 
L 361.152 159.601872 
L 364.128 160.892635 
L 367.104 162.188171 
L 370.08 163.486534 
L 373.056 164.78532 
L 376.032 166.081657 
L 379.008 167.372232 
L 381.984 168.653349 
L 384.96 169.921037 
L 387.936 171.171219 
L 390.912 172.399953 
L 393.888 173.603767 
L 396.864 174.780085 
L 399.84 175.927762 
L 402.816 177.047741 
L 405.792 178.143823 
L 408.768 179.223588 
L 411.744 180.299485 
L 414.72 181.390162 
" style="fill:none;stroke:#ff7f0e;stroke-dasharray:1.5,2.475;stroke-dashoffset:0;stroke-width:1.5;"/>
   </g>
   <g id="line2d_71">
    <path clip-path="url(#p40f55f799d)" d="M 60.576 74.369041 
L 63.552 75.018209 
L 66.528 75.337502 
L 69.504 76.087114 
L 72.48 76.673479 
L 75.456 77.188578 
L 78.432 77.792053 
L 81.408 78.504167 
L 84.384 79.073884 
L 87.36 79.515375 
L 90.336 80.4035 
L 93.312 81.650662 
L 96.288 82.263774 
L 99.264 83.173159 
L 102.24 84.098957 
L 105.216 84.728736 
L 108.192 85.918618 
L 111.168 86.516673 
L 114.144 87.530114 
L 117.12 88.635729 
L 120.096 89.738007 
L 123.072 90.694256 
L 126.048 91.462282 
L 129.024 92.26724 
L 132 94.135492 
L 134.976 95.169552 
L 137.952 96.096032 
L 140.928 97.399675 
L 143.904 98.669041 
L 146.88 100.004552 
L 149.856 101.308813 
L 152.832 102.2853 
L 155.808 104.449019 
L 158.784 106.377937 
L 161.76 106.518342 
L 164.736 108.936378 
L 167.712 110.836156 
L 170.688 110.875834 
L 173.664 113.101556 
L 176.64 114.182947 
L 179.616 116.533498 
L 182.592 118.925135 
L 185.568 121.194374 
L 188.544 120.544149 
L 191.52 123.309858 
L 194.496 125.52349 
L 197.472 125.063694 
L 200.448 128.531064 
L 203.424 128.954889 
L 206.4 130.77302 
L 209.376 134.15907 
L 212.352 137.951981 
L 215.328 135.765054 
L 218.304 137.672535 
L 221.28 141.447093 
L 224.256 142.276947 
L 227.232 145.419512 
L 230.208 145.241901 
L 233.184 150.221672 
L 236.16 149.379296 
L 239.136 152.268956 
L 242.112 154.706411 
L 245.088 158.535691 
L 248.064 153.448686 
L 251.04 155.199003 
L 254.016 160.621338 
L 256.992 158.102938 
L 259.968 160.926206 
L 262.944 166.688806 
L 265.92 165.903355 
L 268.896 165.734111 
L 271.872 169.64616 
L 274.848 168.934169 
L 277.824 174.319459 
L 280.8 170.607148 
L 283.776 176.908466 
L 286.752 173.207996 
L 289.728 173.42257 
L 292.704 179.047767 
L 295.68 179.184266 
L 298.656 183.178808 
L 301.632 186.822274 
L 304.608 180.939589 
L 307.584 181.417758 
L 310.56 189.529188 
L 313.536 190.243865 
L 316.512 191.475309 
L 319.488 199.771927 
L 322.464 190.194326 
L 325.44 191.518143 
L 328.416 198.25678 
L 331.392 199.454132 
L 334.368 209.383454 
L 337.344 200.47702 
L 340.32 205.006431 
L 343.296 195.677165 
L 346.272 210.256188 
L 349.248 202.067724 
L 352.224 217.131864 
L 355.2 215.868479 
L 358.176 210.569057 
L 361.152 211.398405 
L 364.128 201.895425 
L 367.104 221.81835 
L 370.08 208.612233 
L 373.056 214.774585 
L 376.032 214.60582 
L 379.008 231.110965 
L 381.984 213.433155 
L 384.96 217.074223 
L 387.936 220.082695 
L 390.912 229.602705 
L 393.888 212.25862 
L 396.864 214.657617 
L 399.84 227.748775 
L 402.816 209.92636 
L 405.792 223.015117 
L 408.768 248.802817 
L 411.744 249.967506 
L 414.72 224.693731 
" style="fill:none;stroke:#2ca02c;stroke-linecap:square;stroke-width:1.5;"/>
   </g>
   <g id="line2d_72">
    <path clip-path="url(#p40f55f799d)" d="M 60.576 74.401744 
L 63.552 74.913213 
L 66.528 75.447837 
L 69.504 76.006292 
L 72.48 76.589183 
L 75.456 77.19705 
L 78.432 77.830384 
L 81.408 78.489623 
L 84.384 79.175169 
L 87.36 79.887386 
L 90.336 80.626608 
L 93.312 81.393144 
L 96.288 82.187279 
L 99.264 83.009279 
L 102.24 83.859395 
L 105.216 84.73786 
L 108.192 85.644897 
L 111.168 86.580715 
L 114.144 87.545515 
L 117.12 88.539485 
L 120.096 89.562805 
L 123.072 90.615645 
L 126.048 91.69816 
L 129.024 92.810499 
L 132 93.952792 
L 134.976 95.125158 
L 137.952 96.327696 
L 140.928 97.560484 
L 143.904 98.823578 
L 146.88 100.117006 
L 149.856 101.440761 
L 152.832 102.794803 
L 155.808 104.179045 
L 158.784 105.593352 
L 161.76 107.037531 
L 164.736 108.511325 
L 167.712 110.014399 
L 170.688 111.546338 
L 173.664 113.106626 
L 176.64 114.694645 
L 179.616 116.309651 
L 182.592 117.950771 
L 185.568 119.61698 
L 188.544 121.307093 
L 191.52 123.019745 
L 194.496 124.753379 
L 197.472 126.506232 
L 200.448 128.276323 
L 203.424 130.06144 
L 206.4 131.859135 
L 209.376 133.666722 
L 212.352 135.481276 
L 215.328 137.299646 
L 218.304 139.118472 
L 221.28 140.934212 
L 224.256 142.743182 
L 227.232 144.541603 
L 230.208 146.325671 
L 233.184 148.091624 
L 236.16 149.835835 
L 239.136 151.554905 
L 242.112 153.245764 
L 245.088 154.905776 
L 248.064 156.532841 
L 251.04 158.125488 
L 254.016 159.682956 
L 256.992 161.205256 
L 259.968 162.693211 
L 262.944 164.14847 
L 265.92 165.573495 
L 268.896 166.971529 
L 271.872 168.346525 
L 274.848 169.703074 
L 277.824 171.046297 
L 280.8 172.381741 
L 283.776 173.715261 
L 286.752 175.052893 
L 289.728 176.400741 
L 292.704 177.764848 
L 295.68 179.151078 
L 298.656 180.564993 
L 301.632 182.011729 
L 304.608 183.495859 
L 307.584 185.021246 
L 310.56 186.590874 
L 313.536 188.206652 
L 316.512 189.869183 
L 319.488 191.57749 
L 322.464 193.328701 
L 325.44 195.117685 
L 328.416 196.936657 
L 331.392 198.774768 
L 334.368 200.617731 
L 337.344 202.447553 
L 340.32 204.24247 
L 343.296 205.977227 
L 346.272 207.623848 
L 349.248 209.153017 
L 352.224 210.536133 
L 355.2 211.747932 
L 358.176 212.769416 
L 361.152 213.590603 
L 364.128 214.212606 
L 367.104 214.648569 
L 370.08 214.923318 
L 373.056 215.071861 
L 376.032 215.1372 
L 379.008 215.168026 
L 381.984 215.216809 
L 384.96 215.338708 
L 387.936 215.591527 
L 390.912 216.036928 
L 393.888 216.74317 
L 396.864 217.789948 
L 399.84 219.276582 
L 402.816 221.336353 
L 405.792 224.163528 
L 408.768 228.07012 
L 411.744 233.624685 
L 414.72 242.079713 
" style="fill:none;stroke:#2ca02c;stroke-dasharray:1.5,2.475;stroke-dashoffset:0;stroke-width:1.5;"/>
   </g>
   <g id="line2d_73">
    <path clip-path="url(#p40f55f799d)" d="M 60.576 57.371357 
L 63.552 57.44332 
L 66.528 57.437209 
L 69.504 57.463972 
L 72.48 57.473207 
L 75.456 57.46074 
L 78.432 57.395742 
L 81.408 57.407023 
L 84.384 57.45174 
L 87.36 57.418424 
L 90.336 57.426144 
L 93.312 57.513194 
L 96.288 57.433289 
L 99.264 57.439169 
L 102.24 57.471244 
L 105.216 57.473438 
L 108.192 57.410477 
L 111.168 57.43548 
L 114.144 57.417964 
L 117.12 57.424761 
L 120.096 57.493192 
L 123.072 57.435364 
L 126.048 57.36584 
L 129.024 57.434096 
L 132 57.347917 
L 134.976 57.430408 
L 137.952 57.478635 
L 140.928 57.485566 
L 143.904 57.390794 
L 146.88 57.431906 
L 149.856 57.437324 
L 152.832 57.478519 
L 155.808 57.430408 
L 158.784 57.43156 
L 161.76 57.474939 
L 164.736 57.484295 
L 167.712 57.480714 
L 170.688 57.404605 
L 173.664 57.44332 
L 176.64 57.487183 
L 179.616 57.478519 
L 182.592 57.424991 
L 185.568 57.402763 
L 188.544 57.420037 
L 191.52 57.458778 
L 194.496 57.418885 
L 197.472 57.406792 
L 200.448 57.440091 
L 203.424 57.46478 
L 206.4 57.481638 
L 209.376 57.427066 
L 212.352 57.438477 
L 215.328 57.434096 
L 218.304 57.397353 
L 221.28 57.459701 
L 224.256 57.40875 
L 227.232 57.432252 
L 230.208 57.415084 
L 233.184 57.416696 
L 236.16 57.434557 
L 239.136 57.425913 
L 242.112 57.496313 
L 245.088 57.449894 
L 248.064 57.503133 
L 251.04 57.448741 
L 254.016 57.453932 
L 256.992 57.398044 
L 259.968 57.408059 
L 262.944 57.480483 
L 265.92 57.398389 
L 268.896 57.438592 
L 271.872 57.432252 
L 274.848 57.522103 
L 277.824 57.404144 
L 280.8 57.438708 
L 283.776 57.447357 
L 286.752 57.428449 
L 289.728 57.425222 
L 292.704 57.438592 
L 295.68 57.517359 
L 298.656 57.487414 
L 301.632 57.405411 
L 304.608 57.567855 
L 307.584 57.481754 
L 310.56 57.49169 
L 313.536 57.411283 
L 316.512 57.500243 
L 319.488 57.438708 
L 322.464 57.439284 
L 325.44 57.375381 
L 328.416 57.454393 
L 331.392 57.467781 
L 334.368 57.480714 
L 337.344 57.507874 
L 340.32 57.487992 
L 343.296 57.477249 
L 346.272 57.384697 
L 349.248 57.423378 
L 352.224 57.49065 
L 355.2 57.500127 
L 358.176 57.438823 
L 361.152 57.454047 
L 364.128 57.429371 
L 367.104 57.40921 
L 370.08 57.442859 
L 373.056 57.511344 
L 376.032 57.455547 
L 379.008 57.470667 
L 381.984 57.519788 
L 384.96 57.434096 
L 387.936 57.445973 
L 390.912 57.43963 
L 393.888 57.453586 
L 396.864 57.383891 
L 399.84 57.477249 
L 402.816 57.430293 
L 405.792 57.466742 
L 408.768 57.485912 
L 411.744 57.423148 
L 414.72 57.403108 
" style="fill:none;stroke:#d62728;stroke-linecap:square;stroke-width:1.5;"/>
   </g>
   <g id="line2d_74">
    <path clip-path="url(#p40f55f799d)" d="M 60.576 57.403528 
L 63.552 57.419154 
L 66.528 57.430714 
L 69.504 57.438919 
L 72.48 57.444394 
L 75.456 57.447683 
L 78.432 57.44926 
L 81.408 57.44953 
L 84.384 57.448839 
L 87.36 57.447478 
L 90.336 57.445691 
L 93.312 57.443677 
L 96.288 57.441595 
L 99.264 57.439572 
L 102.24 57.437704 
L 105.216 57.436062 
L 108.192 57.434694 
L 111.168 57.433627 
L 114.144 57.432876 
L 117.12 57.432437 
L 120.096 57.4323 
L 123.072 57.432445 
L 126.048 57.432842 
L 129.024 57.433461 
L 132 57.434265 
L 134.976 57.435217 
L 137.952 57.436279 
L 140.928 57.437412 
L 143.904 57.43858 
L 146.88 57.439747 
L 149.856 57.440882 
L 152.832 57.441956 
L 155.808 57.442942 
L 158.784 57.443819 
L 161.76 57.444569 
L 164.736 57.445178 
L 167.712 57.445636 
L 170.688 57.445938 
L 173.664 57.44608 
L 176.64 57.446065 
L 179.616 57.445898 
L 182.592 57.445587 
L 185.568 57.445142 
L 188.544 57.444579 
L 191.52 57.443913 
L 194.496 57.443161 
L 197.472 57.442342 
L 200.448 57.441478 
L 203.424 57.440589 
L 206.4 57.439696 
L 209.376 57.43882 
L 212.352 57.437983 
L 215.328 57.437205 
L 218.304 57.436504 
L 221.28 57.435899 
L 224.256 57.435405 
L 227.232 57.435037 
L 230.208 57.434807 
L 233.184 57.434725 
L 236.16 57.434798 
L 239.136 57.435032 
L 242.112 57.435429 
L 245.088 57.435989 
L 248.064 57.436709 
L 251.04 57.437583 
L 254.016 57.438604 
L 256.992 57.439762 
L 259.968 57.441043 
L 262.944 57.442434 
L 265.92 57.443916 
L 268.896 57.445473 
L 271.872 57.447085 
L 274.848 57.448729 
L 277.824 57.450386 
L 280.8 57.452032 
L 283.776 57.453646 
L 286.752 57.455205 
L 289.728 57.456688 
L 292.704 57.458074 
L 295.68 57.459344 
L 298.656 57.46048 
L 301.632 57.461468 
L 304.608 57.462294 
L 307.584 57.462947 
L 310.56 57.463421 
L 313.536 57.463711 
L 316.512 57.463817 
L 319.488 57.463742 
L 322.464 57.463493 
L 325.44 57.46308 
L 328.416 57.462519 
L 331.392 57.461826 
L 334.368 57.461024 
L 337.344 57.460137 
L 340.32 57.459194 
L 343.296 57.458223 
L 346.272 57.457258 
L 349.248 57.456329 
L 352.224 57.45547 
L 355.2 57.454712 
L 358.176 57.454083 
L 361.152 57.45361 
L 364.128 57.453312 
L 367.104 57.453202 
L 370.08 57.453283 
L 373.056 57.453547 
L 376.032 57.453973 
L 379.008 57.454521 
L 381.984 57.455134 
L 384.96 57.45573 
L 387.936 57.456201 
L 390.912 57.456408 
L 393.888 57.456179 
L 396.864 57.4553 
L 399.84 57.453514 
L 402.816 57.450517 
L 405.792 57.445946 
L 408.768 57.439381 
L 411.744 57.430333 
L 414.72 57.41824 
" style="fill:none;stroke:#d62728;stroke-dasharray:1.5,2.475;stroke-dashoffset:0;stroke-width:1.5;"/>
   </g>
   <g id="line2d_75">
    <path clip-path="url(#p40f55f799d)" d="M 60.576 70.318183 
L 63.552 70.751767 
L 66.528 71.21623 
L 69.504 71.476967 
L 72.48 72.089979 
L 75.456 72.5178 
L 78.432 73.108172 
L 81.408 73.425568 
L 84.384 74.509384 
L 87.36 75.159459 
L 90.336 75.84547 
L 93.312 76.159889 
L 96.288 76.075814 
L 99.264 77.640521 
L 102.24 78.414707 
L 105.216 78.925313 
L 108.192 79.362162 
L 111.168 80.527571 
L 114.144 81.263765 
L 117.12 81.594817 
L 120.096 82.642613 
L 123.072 83.466056 
L 126.048 84.582205 
L 129.024 86.419367 
L 132 87.289933 
L 134.976 89.780365 
L 137.952 90.266883 
L 140.928 89.007623 
L 143.904 91.239643 
L 146.88 92.582442 
L 149.856 93.388483 
L 152.832 95.238743 
L 155.808 96.589688 
L 158.784 97.641287 
L 161.76 99.187547 
L 164.736 99.861214 
L 167.712 101.871919 
L 170.688 103.580652 
L 173.664 101.834113 
L 176.64 105.070088 
L 179.616 108.333955 
L 182.592 107.999643 
L 185.568 107.769589 
L 188.544 107.208742 
L 191.52 112.089652 
L 194.496 112.584898 
L 197.472 116.248008 
L 200.448 116.225262 
L 203.424 119.069417 
L 206.4 119.421266 
L 209.376 120.108461 
L 212.352 122.460745 
L 215.328 122.694361 
L 218.304 127.516701 
L 221.28 124.92223 
L 224.256 127.68827 
L 227.232 133.484301 
L 230.208 132.303341 
L 233.184 132.30187 
L 236.16 132.30187 
L 239.136 135.594042 
L 242.112 143.606475 
L 245.088 138.096523 
L 248.064 134.873021 
L 251.04 144.310021 
L 254.016 144.135183 
L 256.992 138.994087 
L 259.968 145.869274 
L 262.944 153.615377 
L 265.92 147.0297 
L 268.896 159.724123 
L 271.872 157.503601 
L 274.848 147.606846 
L 277.824 166.073847 
L 280.8 155.691196 
L 283.776 156.468528 
L 286.752 158.775933 
L 289.728 154.911768 
L 292.704 171.887305 
L 295.68 162.876729 
L 298.656 173.604013 
L 301.632 178.733283 
L 304.608 162.180858 
L 307.584 168.680929 
L 310.56 169.994589 
L 313.536 176.830109 
L 316.512 163.104129 
L 319.488 177.381689 
L 322.464 186.872874 
L 325.44 167.599852 
L 328.416 177.350698 
L 331.392 182.07638 
L 334.368 175.109233 
L 337.344 197.510185 
L 340.32 212.946523 
L 343.296 195.343114 
L 346.272 184.887667 
L 349.248 178.471734 
L 352.224 177.063434 
L 355.2 188.171135 
L 358.176 184.350432 
L 361.152 189.863799 
L 364.128 195.275759 
L 367.104 197.733512 
L 370.08 201.54728 
L 373.056 193.423911 
L 376.032 189.337656 
L 379.008 209.137119 
L 381.984 196.097277 
L 384.96 225.404993 
L 387.936 211.5906 
L 390.912 185.175519 
L 393.888 214.438279 
L 396.864 198.883709 
L 399.84 264.767634 
L 402.816 242.096555 
L 405.792 239.073907 
L 408.768 212.611875 
L 411.744 201.168111 
L 414.72 304.86154 
" style="fill:none;stroke:#9467bd;stroke-linecap:square;stroke-width:1.5;"/>
   </g>
   <g id="line2d_76">
    <path clip-path="url(#p40f55f799d)" d="M 60.576 70.32678 
L 63.552 70.742002 
L 66.528 71.173688 
L 69.504 71.6239 
L 72.48 72.094426 
L 75.456 72.586809 
L 78.432 73.102373 
L 81.408 73.642248 
L 84.384 74.20739 
L 87.36 74.798603 
L 90.336 75.416555 
L 93.312 76.061794 
L 96.288 76.734759 
L 99.264 77.435797 
L 102.24 78.165169 
L 105.216 78.923061 
L 108.192 79.709587 
L 111.168 80.524801 
L 114.144 81.368699 
L 117.12 82.241222 
L 120.096 83.14226 
L 123.072 84.071655 
L 126.048 85.029201 
L 129.024 86.014646 
L 132 87.027692 
L 134.976 88.067995 
L 137.952 89.135163 
L 140.928 90.228756 
L 143.904 91.348286 
L 146.88 92.493213 
L 149.856 93.662946 
L 152.832 94.856837 
L 155.808 96.074187 
L 158.784 97.314235 
L 161.76 98.576167 
L 164.736 99.859106 
L 167.712 101.162119 
L 170.688 102.484215 
L 173.664 103.824345 
L 176.64 105.181407 
L 179.616 106.55425 
L 182.592 107.941678 
L 185.568 109.342456 
L 188.544 110.755323 
L 191.52 112.178997 
L 194.496 113.612191 
L 197.472 115.053626 
L 200.448 116.502046 
L 203.424 117.956239 
L 206.4 119.415053 
L 209.376 120.877419 
L 212.352 122.342369 
L 215.328 123.809063 
L 218.304 125.276807 
L 221.28 126.745071 
L 224.256 128.213513 
L 227.232 129.681993 
L 230.208 131.150583 
L 233.184 132.619582 
L 236.16 134.089513 
L 239.136 135.561126 
L 242.112 137.035391 
L 245.088 138.513481 
L 248.064 139.996753 
L 251.04 141.486717 
L 254.016 142.985003 
L 256.992 144.493312 
L 259.968 146.013367 
L 262.944 147.546846 
L 265.92 149.095311 
L 268.896 150.660122 
L 271.872 152.242347 
L 274.848 153.842646 
L 277.824 155.461157 
L 280.8 157.097355 
L 283.776 158.749906 
L 286.752 160.416507 
L 289.728 162.093716 
L 292.704 163.776787 
L 295.68 165.45951 
L 298.656 167.134088 
L 301.632 168.791053 
L 304.608 170.419285 
L 307.584 172.006128 
L 310.56 173.537686 
L 313.536 174.999291 
L 316.512 176.376197 
L 319.488 177.654471 
L 322.464 178.822043 
L 325.44 179.869836 
L 328.416 180.792841 
L 331.392 181.591019 
L 334.368 182.269879 
L 337.344 182.840682 
L 340.32 183.32024 
L 343.296 183.730382 
L 346.272 184.097212 
L 349.248 184.450292 
L 352.224 184.821928 
L 355.2 185.246653 
L 358.176 185.761019 
L 361.152 186.403757 
L 364.128 187.216356 
L 367.104 188.24412 
L 370.08 189.5378 
L 373.056 191.155964 
L 376.032 193.16835 
L 379.008 195.660605 
L 381.984 198.74098 
L 384.96 202.549575 
L 387.936 207.270032 
L 390.912 213.139137 
L 393.888 220.428659 
L 396.864 229.277322 
L 399.84 238.862438 
L 402.816 244.896273 
L 405.792 240.407802 
L 408.768 227.612848 
L 411.744 213.467925 
L 414.72 200.595915 
" style="fill:none;stroke:#9467bd;stroke-dasharray:1.5,2.475;stroke-dashoffset:0;stroke-width:1.5;"/>
   </g>
   <g id="patch_3">
    <path d="M 57.6 307.584 
L 57.6 41.472 
" style="fill:none;stroke:#000000;stroke-linecap:square;stroke-linejoin:miter;stroke-width:0.8;"/>
   </g>
   <g id="patch_4">
    <path d="M 414.72 307.584 
L 414.72 41.472 
" style="fill:none;stroke:#000000;stroke-linecap:square;stroke-linejoin:miter;stroke-width:0.8;"/>
   </g>
   <g id="patch_5">
    <path d="M 57.6 307.584 
L 414.72 307.584 
" style="fill:none;stroke:#000000;stroke-linecap:square;stroke-linejoin:miter;stroke-width:0.8;"/>
   </g>
   <g id="patch_6">
    <path d="M 57.6 41.472 
L 414.72 41.472 
" style="fill:none;stroke:#000000;stroke-linecap:square;stroke-linejoin:miter;stroke-width:0.8;"/>
   </g>
   <g id="legend_1">
    <g id="patch_7">
     <path d="M 64.6 302.584 
L 210.726562 302.584 
Q 212.726562 302.584 212.726562 300.584 
L 212.726562 152.0215 
Q 212.726562 150.0215 210.726562 150.0215 
L 64.6 150.0215 
Q 62.6 150.0215 62.6 152.0215 
L 62.6 300.584 
Q 62.6 302.584 64.6 302.584 
z
" style="fill:#ffffff;opacity:0.8;stroke:#cccccc;stroke-linejoin:miter;"/>
    </g>
    <g id="line2d_77">
     <path d="M 66.6 158.119937 
L 86.6 158.119937 
" style="fill:none;stroke:#1f77b4;stroke-linecap:square;stroke-width:1.5;"/>
    </g>
    <g id="line2d_78"/>
    <g id="text_16">
     <!-- BER_MMSE -->
     <defs>
      <path d="M 50.984375 -16.609375 
L 50.984375 -23.578125 
L -0.984375 -23.578125 
L -0.984375 -16.609375 
z
" id="DejaVuSans-95"/>
      <path d="M 9.8125 72.90625 
L 24.515625 72.90625 
L 43.109375 23.296875 
L 61.8125 72.90625 
L 76.515625 72.90625 
L 76.515625 0 
L 66.890625 0 
L 66.890625 64.015625 
L 48.09375 14.015625 
L 38.1875 14.015625 
L 19.390625 64.015625 
L 19.390625 0 
L 9.8125 0 
z
" id="DejaVuSans-77"/>
     </defs>
     <g transform="translate(94.6 161.619937)scale(0.1 -0.1)">
      <use xlink:href="#DejaVuSans-66"/>
      <use x="68.603516" xlink:href="#DejaVuSans-69"/>
      <use x="131.787109" xlink:href="#DejaVuSans-82"/>
      <use x="201.269531" xlink:href="#DejaVuSans-95"/>
      <use x="251.269531" xlink:href="#DejaVuSans-77"/>
      <use x="337.548828" xlink:href="#DejaVuSans-77"/>
      <use x="423.828125" xlink:href="#DejaVuSans-83"/>
      <use x="487.304688" xlink:href="#DejaVuSans-69"/>
     </g>
    </g>
    <g id="line2d_79">
     <path d="M 66.6 173.076187 
L 86.6 173.076187 
" style="fill:none;stroke:#1f77b4;stroke-dasharray:1.5,2.475;stroke-dashoffset:0;stroke-width:1.5;"/>
    </g>
    <g id="line2d_80"/>
    <g id="text_17">
     <!-- BER_MMSE(polyfit) -->
     <defs>
      <path d="M 31 75.875 
Q 24.46875 64.65625 21.28125 53.65625 
Q 18.109375 42.671875 18.109375 31.390625 
Q 18.109375 20.125 21.3125 9.0625 
Q 24.515625 -2 31 -13.1875 
L 23.1875 -13.1875 
Q 15.875 -1.703125 12.234375 9.375 
Q 8.59375 20.453125 8.59375 31.390625 
Q 8.59375 42.28125 12.203125 53.3125 
Q 15.828125 64.359375 23.1875 75.875 
z
" id="DejaVuSans-40"/>
      <path d="M 18.109375 8.203125 
L 18.109375 -20.796875 
L 9.078125 -20.796875 
L 9.078125 54.6875 
L 18.109375 54.6875 
L 18.109375 46.390625 
Q 20.953125 51.265625 25.265625 53.625 
Q 29.59375 56 35.59375 56 
Q 45.5625 56 51.78125 48.09375 
Q 58.015625 40.1875 58.015625 27.296875 
Q 58.015625 14.40625 51.78125 6.484375 
Q 45.5625 -1.421875 35.59375 -1.421875 
Q 29.59375 -1.421875 25.265625 0.953125 
Q 20.953125 3.328125 18.109375 8.203125 
z
M 48.6875 27.296875 
Q 48.6875 37.203125 44.609375 42.84375 
Q 40.53125 48.484375 33.40625 48.484375 
Q 26.265625 48.484375 22.1875 42.84375 
Q 18.109375 37.203125 18.109375 27.296875 
Q 18.109375 17.390625 22.1875 11.75 
Q 26.265625 6.109375 33.40625 6.109375 
Q 40.53125 6.109375 44.609375 11.75 
Q 48.6875 17.390625 48.6875 27.296875 
z
" id="DejaVuSans-112"/>
      <path d="M 30.609375 48.390625 
Q 23.390625 48.390625 19.1875 42.75 
Q 14.984375 37.109375 14.984375 27.296875 
Q 14.984375 17.484375 19.15625 11.84375 
Q 23.34375 6.203125 30.609375 6.203125 
Q 37.796875 6.203125 41.984375 11.859375 
Q 46.1875 17.53125 46.1875 27.296875 
Q 46.1875 37.015625 41.984375 42.703125 
Q 37.796875 48.390625 30.609375 48.390625 
z
M 30.609375 56 
Q 42.328125 56 49.015625 48.375 
Q 55.71875 40.765625 55.71875 27.296875 
Q 55.71875 13.875 49.015625 6.21875 
Q 42.328125 -1.421875 30.609375 -1.421875 
Q 18.84375 -1.421875 12.171875 6.21875 
Q 5.515625 13.875 5.515625 27.296875 
Q 5.515625 40.765625 12.171875 48.375 
Q 18.84375 56 30.609375 56 
z
" id="DejaVuSans-111"/>
      <path d="M 9.421875 75.984375 
L 18.40625 75.984375 
L 18.40625 0 
L 9.421875 0 
z
" id="DejaVuSans-108"/>
      <path d="M 32.171875 -5.078125 
Q 28.375 -14.84375 24.75 -17.8125 
Q 21.140625 -20.796875 15.09375 -20.796875 
L 7.90625 -20.796875 
L 7.90625 -13.28125 
L 13.1875 -13.28125 
Q 16.890625 -13.28125 18.9375 -11.515625 
Q 21 -9.765625 23.484375 -3.21875 
L 25.09375 0.875 
L 2.984375 54.6875 
L 12.5 54.6875 
L 29.59375 11.921875 
L 46.6875 54.6875 
L 56.203125 54.6875 
z
" id="DejaVuSans-121"/>
      <path d="M 37.109375 75.984375 
L 37.109375 68.5 
L 28.515625 68.5 
Q 23.6875 68.5 21.796875 66.546875 
Q 19.921875 64.59375 19.921875 59.515625 
L 19.921875 54.6875 
L 34.71875 54.6875 
L 34.71875 47.703125 
L 19.921875 47.703125 
L 19.921875 0 
L 10.890625 0 
L 10.890625 47.703125 
L 2.296875 47.703125 
L 2.296875 54.6875 
L 10.890625 54.6875 
L 10.890625 58.5 
Q 10.890625 67.625 15.140625 71.796875 
Q 19.390625 75.984375 28.609375 75.984375 
z
" id="DejaVuSans-102"/>
      <path d="M 9.421875 54.6875 
L 18.40625 54.6875 
L 18.40625 0 
L 9.421875 0 
z
M 9.421875 75.984375 
L 18.40625 75.984375 
L 18.40625 64.59375 
L 9.421875 64.59375 
z
" id="DejaVuSans-105"/>
      <path d="M 18.3125 70.21875 
L 18.3125 54.6875 
L 36.8125 54.6875 
L 36.8125 47.703125 
L 18.3125 47.703125 
L 18.3125 18.015625 
Q 18.3125 11.328125 20.140625 9.421875 
Q 21.96875 7.515625 27.59375 7.515625 
L 36.8125 7.515625 
L 36.8125 0 
L 27.59375 0 
Q 17.1875 0 13.234375 3.875 
Q 9.28125 7.765625 9.28125 18.015625 
L 9.28125 47.703125 
L 2.6875 47.703125 
L 2.6875 54.6875 
L 9.28125 54.6875 
L 9.28125 70.21875 
z
" id="DejaVuSans-116"/>
      <path d="M 8.015625 75.875 
L 15.828125 75.875 
Q 23.140625 64.359375 26.78125 53.3125 
Q 30.421875 42.28125 30.421875 31.390625 
Q 30.421875 20.453125 26.78125 9.375 
Q 23.140625 -1.703125 15.828125 -13.1875 
L 8.015625 -13.1875 
Q 14.5 -2 17.703125 9.0625 
Q 20.90625 20.125 20.90625 31.390625 
Q 20.90625 42.671875 17.703125 53.65625 
Q 14.5 64.65625 8.015625 75.875 
z
" id="DejaVuSans-41"/>
     </defs>
     <g transform="translate(94.6 176.576187)scale(0.1 -0.1)">
      <use xlink:href="#DejaVuSans-66"/>
      <use x="68.603516" xlink:href="#DejaVuSans-69"/>
      <use x="131.787109" xlink:href="#DejaVuSans-82"/>
      <use x="201.269531" xlink:href="#DejaVuSans-95"/>
      <use x="251.269531" xlink:href="#DejaVuSans-77"/>
      <use x="337.548828" xlink:href="#DejaVuSans-77"/>
      <use x="423.828125" xlink:href="#DejaVuSans-83"/>
      <use x="487.304688" xlink:href="#DejaVuSans-69"/>
      <use x="550.488281" xlink:href="#DejaVuSans-40"/>
      <use x="589.501953" xlink:href="#DejaVuSans-112"/>
      <use x="652.978516" xlink:href="#DejaVuSans-111"/>
      <use x="714.160156" xlink:href="#DejaVuSans-108"/>
      <use x="741.943359" xlink:href="#DejaVuSans-121"/>
      <use x="801.123047" xlink:href="#DejaVuSans-102"/>
      <use x="836.328125" xlink:href="#DejaVuSans-105"/>
      <use x="864.111328" xlink:href="#DejaVuSans-116"/>
      <use x="903.320312" xlink:href="#DejaVuSans-41"/>
     </g>
    </g>
    <g id="line2d_81">
     <path d="M 66.6 188.032437 
L 86.6 188.032437 
" style="fill:none;stroke:#ff7f0e;stroke-linecap:square;stroke-width:1.5;"/>
    </g>
    <g id="line2d_82"/>
    <g id="text_18">
     <!-- BER_ZF -->
     <defs>
      <path d="M 5.609375 72.90625 
L 62.890625 72.90625 
L 62.890625 65.375 
L 16.796875 8.296875 
L 64.015625 8.296875 
L 64.015625 0 
L 4.5 0 
L 4.5 7.515625 
L 50.59375 64.59375 
L 5.609375 64.59375 
z
" id="DejaVuSans-90"/>
      <path d="M 9.8125 72.90625 
L 51.703125 72.90625 
L 51.703125 64.59375 
L 19.671875 64.59375 
L 19.671875 43.109375 
L 48.578125 43.109375 
L 48.578125 34.8125 
L 19.671875 34.8125 
L 19.671875 0 
L 9.8125 0 
z
" id="DejaVuSans-70"/>
     </defs>
     <g transform="translate(94.6 191.532437)scale(0.1 -0.1)">
      <use xlink:href="#DejaVuSans-66"/>
      <use x="68.603516" xlink:href="#DejaVuSans-69"/>
      <use x="131.787109" xlink:href="#DejaVuSans-82"/>
      <use x="201.269531" xlink:href="#DejaVuSans-95"/>
      <use x="251.269531" xlink:href="#DejaVuSans-90"/>
      <use x="319.775391" xlink:href="#DejaVuSans-70"/>
     </g>
    </g>
    <g id="line2d_83">
     <path d="M 66.6 202.988687 
L 86.6 202.988687 
" style="fill:none;stroke:#ff7f0e;stroke-dasharray:1.5,2.475;stroke-dashoffset:0;stroke-width:1.5;"/>
    </g>
    <g id="line2d_84"/>
    <g id="text_19">
     <!-- BER_ZF(polyfit) -->
     <g transform="translate(94.6 206.488687)scale(0.1 -0.1)">
      <use xlink:href="#DejaVuSans-66"/>
      <use x="68.603516" xlink:href="#DejaVuSans-69"/>
      <use x="131.787109" xlink:href="#DejaVuSans-82"/>
      <use x="201.269531" xlink:href="#DejaVuSans-95"/>
      <use x="251.269531" xlink:href="#DejaVuSans-90"/>
      <use x="319.775391" xlink:href="#DejaVuSans-70"/>
      <use x="377.294922" xlink:href="#DejaVuSans-40"/>
      <use x="416.308594" xlink:href="#DejaVuSans-112"/>
      <use x="479.785156" xlink:href="#DejaVuSans-111"/>
      <use x="540.966797" xlink:href="#DejaVuSans-108"/>
      <use x="568.75" xlink:href="#DejaVuSans-121"/>
      <use x="627.929688" xlink:href="#DejaVuSans-102"/>
      <use x="663.134766" xlink:href="#DejaVuSans-105"/>
      <use x="690.917969" xlink:href="#DejaVuSans-116"/>
      <use x="730.126953" xlink:href="#DejaVuSans-41"/>
     </g>
    </g>
    <g id="line2d_85">
     <path d="M 66.6 217.944937 
L 86.6 217.944937 
" style="fill:none;stroke:#2ca02c;stroke-linecap:square;stroke-width:1.5;"/>
    </g>
    <g id="line2d_86"/>
    <g id="text_20">
     <!-- BER_SIC-MMSE -->
     <defs>
      <path d="M 9.8125 72.90625 
L 19.671875 72.90625 
L 19.671875 0 
L 9.8125 0 
z
" id="DejaVuSans-73"/>
      <path d="M 64.40625 67.28125 
L 64.40625 56.890625 
Q 59.421875 61.53125 53.78125 63.8125 
Q 48.140625 66.109375 41.796875 66.109375 
Q 29.296875 66.109375 22.65625 58.46875 
Q 16.015625 50.828125 16.015625 36.375 
Q 16.015625 21.96875 22.65625 14.328125 
Q 29.296875 6.6875 41.796875 6.6875 
Q 48.140625 6.6875 53.78125 8.984375 
Q 59.421875 11.28125 64.40625 15.921875 
L 64.40625 5.609375 
Q 59.234375 2.09375 53.4375 0.328125 
Q 47.65625 -1.421875 41.21875 -1.421875 
Q 24.65625 -1.421875 15.125 8.703125 
Q 5.609375 18.84375 5.609375 36.375 
Q 5.609375 53.953125 15.125 64.078125 
Q 24.65625 74.21875 41.21875 74.21875 
Q 47.75 74.21875 53.53125 72.484375 
Q 59.328125 70.75 64.40625 67.28125 
z
" id="DejaVuSans-67"/>
      <path d="M 4.890625 31.390625 
L 31.203125 31.390625 
L 31.203125 23.390625 
L 4.890625 23.390625 
z
" id="DejaVuSans-45"/>
     </defs>
     <g transform="translate(94.6 221.444937)scale(0.1 -0.1)">
      <use xlink:href="#DejaVuSans-66"/>
      <use x="68.603516" xlink:href="#DejaVuSans-69"/>
      <use x="131.787109" xlink:href="#DejaVuSans-82"/>
      <use x="201.269531" xlink:href="#DejaVuSans-95"/>
      <use x="251.269531" xlink:href="#DejaVuSans-83"/>
      <use x="314.746094" xlink:href="#DejaVuSans-73"/>
      <use x="344.238281" xlink:href="#DejaVuSans-67"/>
      <use x="414.0625" xlink:href="#DejaVuSans-45"/>
      <use x="450.146484" xlink:href="#DejaVuSans-77"/>
      <use x="536.425781" xlink:href="#DejaVuSans-77"/>
      <use x="622.705078" xlink:href="#DejaVuSans-83"/>
      <use x="686.181641" xlink:href="#DejaVuSans-69"/>
     </g>
    </g>
    <g id="line2d_87">
     <path d="M 66.6 232.901187 
L 86.6 232.901187 
" style="fill:none;stroke:#2ca02c;stroke-dasharray:1.5,2.475;stroke-dashoffset:0;stroke-width:1.5;"/>
    </g>
    <g id="line2d_88"/>
    <g id="text_21">
     <!-- BER_SIC-MMSE(polyfit) -->
     <g transform="translate(94.6 236.401187)scale(0.1 -0.1)">
      <use xlink:href="#DejaVuSans-66"/>
      <use x="68.603516" xlink:href="#DejaVuSans-69"/>
      <use x="131.787109" xlink:href="#DejaVuSans-82"/>
      <use x="201.269531" xlink:href="#DejaVuSans-95"/>
      <use x="251.269531" xlink:href="#DejaVuSans-83"/>
      <use x="314.746094" xlink:href="#DejaVuSans-73"/>
      <use x="344.238281" xlink:href="#DejaVuSans-67"/>
      <use x="414.0625" xlink:href="#DejaVuSans-45"/>
      <use x="450.146484" xlink:href="#DejaVuSans-77"/>
      <use x="536.425781" xlink:href="#DejaVuSans-77"/>
      <use x="622.705078" xlink:href="#DejaVuSans-83"/>
      <use x="686.181641" xlink:href="#DejaVuSans-69"/>
      <use x="749.365234" xlink:href="#DejaVuSans-40"/>
      <use x="788.378906" xlink:href="#DejaVuSans-112"/>
      <use x="851.855469" xlink:href="#DejaVuSans-111"/>
      <use x="913.037109" xlink:href="#DejaVuSans-108"/>
      <use x="940.820312" xlink:href="#DejaVuSans-121"/>
      <use x="1000" xlink:href="#DejaVuSans-102"/>
      <use x="1035.205078" xlink:href="#DejaVuSans-105"/>
      <use x="1062.988281" xlink:href="#DejaVuSans-116"/>
      <use x="1102.197266" xlink:href="#DejaVuSans-41"/>
     </g>
    </g>
    <g id="line2d_89">
     <path d="M 66.6 247.857437 
L 86.6 247.857437 
" style="fill:none;stroke:#d62728;stroke-linecap:square;stroke-width:1.5;"/>
    </g>
    <g id="line2d_90"/>
    <g id="text_22">
     <!-- BER_non -->
     <defs>
      <path d="M 54.890625 33.015625 
L 54.890625 0 
L 45.90625 0 
L 45.90625 32.71875 
Q 45.90625 40.484375 42.875 44.328125 
Q 39.84375 48.1875 33.796875 48.1875 
Q 26.515625 48.1875 22.3125 43.546875 
Q 18.109375 38.921875 18.109375 30.90625 
L 18.109375 0 
L 9.078125 0 
L 9.078125 54.6875 
L 18.109375 54.6875 
L 18.109375 46.1875 
Q 21.34375 51.125 25.703125 53.5625 
Q 30.078125 56 35.796875 56 
Q 45.21875 56 50.046875 50.171875 
Q 54.890625 44.34375 54.890625 33.015625 
z
" id="DejaVuSans-110"/>
     </defs>
     <g transform="translate(94.6 251.357437)scale(0.1 -0.1)">
      <use xlink:href="#DejaVuSans-66"/>
      <use x="68.603516" xlink:href="#DejaVuSans-69"/>
      <use x="131.787109" xlink:href="#DejaVuSans-82"/>
      <use x="201.269531" xlink:href="#DejaVuSans-95"/>
      <use x="251.269531" xlink:href="#DejaVuSans-110"/>
      <use x="314.648438" xlink:href="#DejaVuSans-111"/>
      <use x="375.830078" xlink:href="#DejaVuSans-110"/>
     </g>
    </g>
    <g id="line2d_91">
     <path d="M 66.6 262.813687 
L 86.6 262.813687 
" style="fill:none;stroke:#d62728;stroke-dasharray:1.5,2.475;stroke-dashoffset:0;stroke-width:1.5;"/>
    </g>
    <g id="line2d_92"/>
    <g id="text_23">
     <!-- BER_non(polyfit) -->
     <g transform="translate(94.6 266.313687)scale(0.1 -0.1)">
      <use xlink:href="#DejaVuSans-66"/>
      <use x="68.603516" xlink:href="#DejaVuSans-69"/>
      <use x="131.787109" xlink:href="#DejaVuSans-82"/>
      <use x="201.269531" xlink:href="#DejaVuSans-95"/>
      <use x="251.269531" xlink:href="#DejaVuSans-110"/>
      <use x="314.648438" xlink:href="#DejaVuSans-111"/>
      <use x="375.830078" xlink:href="#DejaVuSans-110"/>
      <use x="439.208984" xlink:href="#DejaVuSans-40"/>
      <use x="478.222656" xlink:href="#DejaVuSans-112"/>
      <use x="541.699219" xlink:href="#DejaVuSans-111"/>
      <use x="602.880859" xlink:href="#DejaVuSans-108"/>
      <use x="630.664062" xlink:href="#DejaVuSans-121"/>
      <use x="689.84375" xlink:href="#DejaVuSans-102"/>
      <use x="725.048828" xlink:href="#DejaVuSans-105"/>
      <use x="752.832031" xlink:href="#DejaVuSans-116"/>
      <use x="792.041016" xlink:href="#DejaVuSans-41"/>
     </g>
    </g>
    <g id="line2d_93">
     <path d="M 66.6 277.769937 
L 86.6 277.769937 
" style="fill:none;stroke:#9467bd;stroke-linecap:square;stroke-width:1.5;"/>
    </g>
    <g id="line2d_94"/>
    <g id="text_24">
     <!-- BER_SIC-ZF -->
     <g transform="translate(94.6 281.269937)scale(0.1 -0.1)">
      <use xlink:href="#DejaVuSans-66"/>
      <use x="68.603516" xlink:href="#DejaVuSans-69"/>
      <use x="131.787109" xlink:href="#DejaVuSans-82"/>
      <use x="201.269531" xlink:href="#DejaVuSans-95"/>
      <use x="251.269531" xlink:href="#DejaVuSans-83"/>
      <use x="314.746094" xlink:href="#DejaVuSans-73"/>
      <use x="344.238281" xlink:href="#DejaVuSans-67"/>
      <use x="414.0625" xlink:href="#DejaVuSans-45"/>
      <use x="450.146484" xlink:href="#DejaVuSans-90"/>
      <use x="518.652344" xlink:href="#DejaVuSans-70"/>
     </g>
    </g>
    <g id="line2d_95">
     <path d="M 66.6 292.726187 
L 86.6 292.726187 
" style="fill:none;stroke:#9467bd;stroke-dasharray:1.5,2.475;stroke-dashoffset:0;stroke-width:1.5;"/>
    </g>
    <g id="line2d_96"/>
    <g id="text_25">
     <!-- BER_SIC-ZF(polyfit) -->
     <g transform="translate(94.6 296.226187)scale(0.1 -0.1)">
      <use xlink:href="#DejaVuSans-66"/>
      <use x="68.603516" xlink:href="#DejaVuSans-69"/>
      <use x="131.787109" xlink:href="#DejaVuSans-82"/>
      <use x="201.269531" xlink:href="#DejaVuSans-95"/>
      <use x="251.269531" xlink:href="#DejaVuSans-83"/>
      <use x="314.746094" xlink:href="#DejaVuSans-73"/>
      <use x="344.238281" xlink:href="#DejaVuSans-67"/>
      <use x="414.0625" xlink:href="#DejaVuSans-45"/>
      <use x="450.146484" xlink:href="#DejaVuSans-90"/>
      <use x="518.652344" xlink:href="#DejaVuSans-70"/>
      <use x="576.171875" xlink:href="#DejaVuSans-40"/>
      <use x="615.185547" xlink:href="#DejaVuSans-112"/>
      <use x="678.662109" xlink:href="#DejaVuSans-111"/>
      <use x="739.84375" xlink:href="#DejaVuSans-108"/>
      <use x="767.626953" xlink:href="#DejaVuSans-121"/>
      <use x="826.806641" xlink:href="#DejaVuSans-102"/>
      <use x="862.011719" xlink:href="#DejaVuSans-105"/>
      <use x="889.794922" xlink:href="#DejaVuSans-116"/>
      <use x="929.003906" xlink:href="#DejaVuSans-41"/>
     </g>
    </g>
   </g>
  </g>
 </g>
 <defs>
  <clipPath id="p40f55f799d">
   <rect height="266.112" width="357.12" x="57.6" y="41.472"/>
  </clipPath>
 </defs>
</svg>
